<?xml version="1.0" encoding="utf-8"?>
<!-- Generator: Adobe Illustrator 18.1.1, SVG Export Plug-In . SVG Version: 6.00 Build 0)  -->
<svg version="1.1" id="레이어_1" xmlns="http://www.w3.org/2000/svg" xmlns:xlink="http://www.w3.org/1999/xlink" x="0px"
	 y="0px" viewBox="0 0 79.4 116.5" enable-background="new 0 0 79.4 116.5" xml:space="preserve">
<g>
	<path fill="#CB3333" d="M39.7,116.5c-2.3-3.4-4.7-6.7-6.9-10c-8-11.8-15.5-23.8-22.1-36.4c-3.3-6.3-6.2-12.7-8.5-19.4
		c-3.8-10.9-2.4-21.2,3.3-30.9C11.9,8.7,21.8,2.1,34.6,0.4c21.3-3,41.3,12.2,44.5,33.3c1.1,7.1-0.3,13.7-2.8,20.3
		C72.3,64.2,67.1,73.7,61.6,83c-6.6,11.2-13.7,22-21.2,32.5C40.2,115.9,40,116.1,39.7,116.5z M39.8,18.1
		c-12.1,0.2-21.5,9.6-21.7,21.3c-0.2,12.5,9.7,21.9,21.4,22.1c12.3,0.1,21.9-9.6,21.9-21.6C61.5,27.7,51.7,18.2,39.8,18.1z"/>
	<path fill="#932424" d="M39.8,18.1c12,0.1,21.7,9.6,21.7,21.9c-0.1,11.9-9.6,21.7-21.9,21.6c-11.7-0.1-21.6-9.6-21.4-22.1
		C18.2,27.6,27.7,18.2,39.8,18.1z M39.7,51.7c6.5,0.3,11.9-5.4,12-11.7c0.1-6.6-5.5-12.1-11.8-12.1c-6.6-0.1-12.1,5.6-12.1,11.9
		C27.8,46.2,33.3,51.9,39.7,51.7z"/>
</g>
</svg>
