<?xml version="1.0" encoding="iso-8859-1"?>
<!-- Generator: Adobe Illustrator 18.1.1, SVG Export Plug-In . SVG Version: 6.00 Build 0)  -->
<svg version="1.1" id="&#xB808;&#xC774;&#xC5B4;_1" xmlns="http://www.w3.org/2000/svg" xmlns:xlink="http://www.w3.org/1999/xlink"
	 x="0px" y="0px" viewBox="0 0 112.496 123.565" style="enable-background:new 0 0 112.496 123.565;" xml:space="preserve">
<g>
	<path style="fill:#0DB3ED;" d="M112.496,0c0,19.807,0,38.73,0,58.133c-21.838,0-43.532,0-65.496,0c0-14.774,0-29.684,0-45.143
		C68.581,8.71,90.274,4.407,112.496,0z"/>
	<path style="fill:#0DB3ED;" d="M46.879,110.62c0-15.455,0-30.397,0-46.093c21.787,1.047,43.478,0.724,65.465,0.973
		c0,19.316,0,38.364,0,58.065C90.477,119.241,68.7,114.934,46.879,110.62z"/>
	<path style="fill:#0EB3ED;" d="M40.476,58.468c-13.527,0.875-26.787,1.096-40.386,0.818c0-12.238,0-24.313,0-36.981
		c13.229-2.646,26.641-5.329,40.386-8.078C40.476,29.069,40.476,43.502,40.476,58.468z"/>
	<path style="fill:#0DB3ED;" d="M40.347,109.329c-13.571-2.708-26.866-5.36-40.347-8.05c0-12.28,0-24.352,0-36.661
		c13.444,0,26.701,0,40.347,0C40.347,79.457,40.347,94.164,40.347,109.329z"/>
</g>
</svg>
